<svg fill="#FFFFFF" width="800px" height="800px" viewBox="0 0 24 24" xmlns="http://www.w3.org/2000/svg">
  <path d="M12 22c2.579 0 4-1.35 4-3.8 0-3.243-3.237-5.871-3.375-5.981a1 1 0 0 0-1.25 0C11.237 12.329 8 14.957 8 18.2c0 2.45 1.421 3.8 4 3.8ZM6 12c2.579 0 4-1.35 4-3.8 0-3.243-3.237-5.871-3.375-5.981a1 1 0 0 0-1.25 0C5.237 2.329 2 4.957 2 8.2c0 2.45 1.421 3.8 4 3.8Zm12 0c2.579 0 4-1.35 4-3.8 0-3.243-3.237-5.871-3.375-5.981a1 1 0 0 0-1.25 0C17.237 2.329 14 4.957 14 8.2c0 2.45 1.421 3.8 4 3.8Z" fill=" rgba(255, 255, 255)" fill-opacity="0.3"/>
</svg>
